Coordinates
version=1
nRows=14
nColumns=40
inDegrees=yes

Units are S.I. units (second, meters, Newtons, ...)
If the header above contains a line with 'inDegrees', this indicates whether rotational values are in degrees (yes) or radians (no).

endheader
time	pelvis_tilt	pelvis_list	pelvis_rotation	pelvis_tx	pelvis_ty	pelvis_tz	hip_flexion_r	hip_adduction_r	hip_rotation_r	knee_angle_r	knee_angle_r_beta	ankle_angle_r	subtalar_angle_r	mtp_angle_r	hip_flexion_l	hip_adduction_l	hip_rotation_l	knee_angle_l	knee_angle_l_beta	ankle_angle_l	subtalar_angle_l	mtp_angle_l	lumbar_extension	lumbar_bending	lumbar_rotation	arm_flex_r	arm_add_r	arm_rot_r	elbow_flex_r	pro_sup_r	wrist_flex_r	wrist_dev_r	arm_flex_l	arm_add_l	arm_rot_l	elbow_flex_l	pro_sup_l	wrist_flex_l	wrist_dev_l
     11.41700000	      4.98953257	      0.27725637	    -18.87514651	      0.05108687	      1.30529113	      0.01766779	     67.14965927	     -5.43570565	      7.07433684	    103.39215018	      1.80453344	    -11.57945292	    -29.34170365	      0.00000000	     29.82780675	    -10.48665494	    -15.30741195	     38.74471326	      0.67622281	    -18.92260975	     -3.61984595	      0.00000000	    -53.38674281	     -1.88819171	     -3.16060911	     62.38561924	     -7.18113320	    -15.74067057	     36.63674065	     88.35321518	      0.00000000	      0.00000000	     63.30046120	    -12.17351315	    -16.01576754	     38.29209548	     87.11563635	      0.00000000	      0.00000000
     11.43300000	      4.82949671	      0.16754059	    -19.05923145	      0.05097247	      1.30489067	      0.01785855	     69.29535731	     -4.90969390	      7.09455036	    103.61996182	      1.80850950	    -10.79447997	    -29.45881217	      0.00000000	     28.68773070	    -10.70699002	    -15.14984362	     38.24584178	      0.66751586	    -20.40233992	     -4.22757568	      0.00000000	    -53.40419584	     -1.88549329	     -2.88694091	     62.62182497	     -7.11507353	    -15.81556343	     36.63769946	     88.32022688	      0.00000000	      0.00000000	     63.47611613	    -12.15397895	    -16.05958101	     38.37127794	     87.07006934	      0.00000000	      0.00000000
     11.45000000	      4.78164522	      0.11619602	    -19.26994441	      0.05101162	      1.30466417	      0.01803778	     71.03019156	     -4.44868120	      7.10381407	    103.38739689	      1.80445048	    -10.09030123	    -29.58791677	      0.00000000	     27.67192377	    -10.80506388	    -14.57407255	     38.20492010	      0.66680165	    -21.03494082	     -4.64893886	      0.00000000	    -53.50554517	     -1.96903740	     -2.71232593	     62.83542675	     -7.06176985	    -15.86986504	     36.68740747	     88.21255125	      0.00000000	      0.00000000	     63.62841876	    -12.22440088	    -16.09487856	     38.40120495	     86.92941975	      0.00000000	      0.00000000
     11.46700000	      4.65583358	      0.06862718	    -19.49523129	      0.05107837	      1.30436269	      0.01837738	     72.52121706	     -3.99375313	      6.94114151	    102.78782430	      1.79398597	     -9.18517900	    -29.73197855	      0.00000000	     27.05575723	    -11.13460249	    -14.35581151	     38.73861424	      0.67611637	    -21.89468125	     -5.53089736	      0.00000000	    -53.51450401	     -2.08891316	     -2.50807458	     63.00704788	     -7.00223316	    -15.99386404	     36.67552461	     88.30617219	      0.00000000	      0.00000000	     63.81758144	    -12.26456173	    -16.14104305	     38.39713613	     87.04231542	      0.00000000	      0.00000000
     11.48300000	      4.61595171	      0.03512037	    -19.67311405	      0.05120151	      1.30426413	      0.01868028	     73.56157915	     -3.61053194	      6.68716005	    101.75819483	      1.77601554	     -8.21592916	    -30.00742599	      0.00000000	     26.62041861	    -11.41007606	    -13.75227578	     39.76989062	      0.69411553	    -22.03247662	     -6.06231570	      0.00000000	    -53.60661951	     -2.21513947	     -2.40898217	     63.18969573	     -6.91355639	    -16.01700786	     36.64400369	     88.30924559	      0.00000000	      0.00000000	     64.01689249	    -12.32813346	    -16.15589611	     38.37878959	     87.05740674	      0.00000000	      0.00000000
     11.50000000	      4.59840646	     -0.03080032	    -19.75957240	      0.05134856	      1.30427776	      0.01897594	     74.19537000	     -3.35454250	      6.31100834	    100.34136156	      1.75128714	     -7.50173389	    -30.29284243	      0.00000000	     26.46838483	    -11.73559716	    -12.98585627	     41.29249247	      0.72068995	    -21.95004263	     -6.65243228	      0.00000000	    -53.73486684	     -2.27285550	     -2.31714728	     63.34593382	     -6.88019168	    -16.01777563	     36.63437977	     88.30787032	      0.00000000	      0.00000000	     64.21026524	    -12.36541492	    -16.13908938	     38.35303214	     87.15315554	      0.00000000	      0.00000000
     11.51700000	      4.85109006	      0.24429205	    -19.86386686	      0.05158595	      1.30453336	      0.01945013	     74.38186825	     -3.30701792	      6.30472954	     98.62051537	      1.72125270	     -6.98895821	    -30.47042057	      0.00000000	     26.30230079	    -11.74898562	    -12.40441781	     43.02416332	      0.75091331	    -22.12338808	     -6.84622351	      0.00000000	    -54.02911159	     -2.66569027	     -2.53340084	     63.42968648	     -6.87764529	    -16.01191789	     36.71055669	     88.30196530	      0.00000000	      0.00000000	     64.41748249	    -12.40785341	    -16.12709489	     38.38222253	     87.16329991	      0.00000000	      0.00000000
     11.53300000	      4.66454365	     -0.03592224	    -19.59007847	      0.05182126	      1.30452344	      0.01944212	     74.25816082	     -3.47302694	      5.35292308	     96.39629279	      1.68243270	     -6.55818531	    -30.89201838	      0.00000000	     27.01640390	    -12.23784751	    -11.00766352	     45.68173374	      0.79729666	    -21.37915551	     -7.86789169	      0.00000000	    -54.06454902	     -2.27741951	     -2.37694771	     63.61881339	     -7.01469140	    -15.83064294	     36.62901219	     88.30300273	      0.00000000	      0.00000000	     64.60832869	    -12.40416419	    -15.98572196	     38.24746555	     87.17900927	      0.00000000	      0.00000000
     11.55000000	      4.90946798	      0.13644763	    -19.48786697	      0.05203263	      1.30491589	      0.01968841	     73.65028116	     -3.71834220	      5.04969362	     94.02285525	      1.64100840	     -6.30286869	    -31.09158613	      0.00000000	     27.44954519	    -12.28087657	    -10.04921738	     48.38650886	      0.84450389	    -20.79121519	     -8.60917787	      0.00000000	    -54.35704935	     -2.44059178	     -2.58882165	     63.68327768	     -7.08963827	    -15.81935258	     36.66460622	     88.29985379	      0.00000000	      0.00000000	     64.81523176	    -12.38338938	    -15.90294216	     38.18037500	     87.19039438	      0.00000000	      0.00000000
     11.56700000	      5.07420490	      0.21185256	    -19.12986465	      0.05218336	      1.30524396	      0.01971497	     72.70973696	     -4.21225583	      4.48944300	     91.38682894	      1.59500106	     -6.27265349	    -31.42137356	      0.00000000	     28.34322332	    -12.34564244	     -8.67403762	     51.51351730	      0.89908049	    -20.31312102	     -9.16339972	      0.00000000	    -54.56075958	     -2.30777652	     -2.87077221	     63.70681871	     -7.16117689	    -15.80269040	     36.69738657	     88.29697638	      0.00000000	      0.00000000	     64.93797311	    -12.33722076	    -15.86794169	     38.13973560	     87.18925015	      0.00000000	      0.00000000
     11.58300000	      5.39371894	      0.46310236	    -18.81531913	      0.05232886	      1.30582184	      0.01980483	     71.35548020	     -4.77365099	      4.14722692	     88.49127209	      1.54446406	     -6.37019162	    -31.62367252	      0.00000000	     29.24769715	    -12.22387932	     -7.47598582	     54.83868423	      0.95711560	    -19.70687698	     -9.81875142	      0.00000000	    -54.83940967	     -2.35650417	     -3.27836191	     63.63621722	     -7.22394914	    -15.89095770	     36.76952939	     88.30019656	      0.00000000	      0.00000000	     65.05860238	    -12.24815743	    -15.85012191	     38.11548214	     87.19442816	      0.00000000	      0.00000000
     11.60000000	      5.87057016	      0.83294280	    -18.62774813	      0.05239737	      1.30633100	      0.01993690	     69.73646694	     -5.38619841	      3.90832575	     85.56234094	      1.49334457	     -6.66020490	    -31.57413544	      0.00000000	     30.16659165	    -11.98642462	     -6.43128013	     58.34782241	      1.01836161	    -19.15089902	    -10.39657255	      0.00000000	    -55.18748703	     -2.62486119	     -3.79218180	     63.49519303	     -7.25419560	    -15.97358496	     36.96202832	     88.29235254	      0.00000000	      0.00000000	     65.14441425	    -12.21202152	    -15.80664383	     38.03143688	     87.20881542	      0.00000000	      0.00000000
     11.61700000	      6.02487080	      0.85990172	    -17.79955643	      0.05239333	      1.30681439	      0.01944131	     67.76499649	     -6.35560429	      2.92159917	     82.27892510	      1.43603815	     -6.89400900	    -31.87290845	      0.00000000	     31.71271173	    -11.85597332	     -4.54709633	     62.04539841	      1.08289649	    -18.59125678	    -10.68144674	      0.00000000	    -55.31557352	     -2.14257286	     -4.22607667	     63.28606804	     -7.36913983	    -16.15753111	     37.08288024	     88.30709238	      0.00000000	      0.00000000	     65.25218592	    -12.06187786	    -15.70083915	     37.90089254	     87.21061858	      0.00000000	      0.00000000
     11.63300000	      6.50530145	      1.33770776	    -17.45799830	      0.05235430	      1.30743892	      0.01937731	     65.53970569	     -7.12183832	      2.66787991	     78.91704178	      1.37736222	     -7.35784352	    -31.65981376	      0.00000000	     32.91508522	    -11.44473924	     -3.46336321	     65.73939799	      1.14736894	    -17.92280021	    -11.15305210	      0.00000000	    -55.57660635	     -2.41264359	     -4.83486646	     62.95986714	     -7.46797129	    -16.32321334	     37.28704804	     88.29953776	      0.00000000	      0.00000000	     65.32850310	    -11.94970942	    -15.52478745	     37.76852482	     87.22908971	      0.00000000	      0.00000000
